<svg width="32" height="32" viewBox="0 0 32 32" fill="none" xmlns="http://www.w3.org/2000/svg">
  <rect width="10" height="10" fill="#1E3A8A"/>
  <rect x="11" width="10" height="10" fill="#FACC15"/>
  <rect x="22" width="10" height="10" fill="#1E3A8A"/>
  <rect y="11" width="10" height="10" fill="#FACC15"/>
  <rect x="11" y="11" width="10" height="10" fill="#1E3A8A"/>
  <rect x="22" y="11" width="10" height="10" fill="#FACC15"/>
  <rect y="22" width="10" height="10" fill="#1E3A8A"/>
  <rect x="11" y="22" width="10" height="10" fill="#FACC15"/>
  <rect x="22" y="22" width="10" height="10" fill="#1E3A8A"/>
  <path d="M6 4L6 7L4 7L4 4L6 4Z" fill="white"/>
  <path d="M17 4L17 7L15 7L15 4L17 4Z" fill="#1E3A8A"/>
  <path d="M28 4L28 7L26 7L26 4L28 4Z" fill="white"/>
  <path d="M6 15L6 18L4 18L4 15L6 15Z" fill="#1E3A8A"/>
  <path d="M17 15L17 18L15 18L15 15L17 15Z" fill="white"/>
  <path d="M28 15L28 18L26 18L26 15L28 15Z" fill="#1E3A8A"/>
  <path d="M6 26L6 29L4 29L4 26L6 26Z" fill="white"/>
  <path d="M17 26L17 29L15 29L15 26L17 26Z" fill="#1E3A8A"/>
  <path d="M28 26L28 29L26 29L26 26L28 26Z" fill="white"/>
</svg>